<svg width="376" height="260" viewBox="0 0 376 260" fill="none" xmlns="http://www.w3.org/2000/svg">
<g clip-path="url(#clip0_106_183)">
<mask id="mask0_106_183" style="mask-type:luminance" maskUnits="userSpaceOnUse" x="0" y="0" width="376" height="260">
<path d="M375.5 0H0.5V260H375.5V0Z" fill="white"/>
</mask>
<g mask="url(#mask0_106_183)">
<mask id="mask1_106_183" style="mask-type:luminance" maskUnits="userSpaceOnUse" x="0" y="0" width="376" height="260">
<path d="M0.5 0H375.5V260H0.5V0Z" fill="white"/>
</mask>
<g mask="url(#mask1_106_183)">
<mask id="mask2_106_183" style="mask-type:luminance" maskUnits="userSpaceOnUse" x="244" y="54" width="67" height="81">
<path d="M244.435 54.855H310.345V134.025H244.435V54.855Z" fill="white"/>
</mask>
<g mask="url(#mask2_106_183)">
<path d="M301.866 64.4064V124.858C301.866 127.432 299.76 129.538 297.186 129.538H255.727C253.153 129.538 251.047 127.432 251.047 124.858V64.4064C251.047 61.8324 253.153 59.7264 255.727 59.7264H297.186C299.76 59.7264 301.866 61.8324 301.866 64.4064Z" stroke="#E79A45" stroke-width="0.39" stroke-miterlimit="10"/>
<path d="M303.948 82.71H282.308C281.576 82.71 280.976 82.1105 280.976 81.3781V65.2243C280.976 64.4919 281.576 63.8925 282.308 63.8925H303.948C304.681 63.8925 305.28 64.4919 305.28 65.2243V81.3781C305.28 82.1105 304.681 82.71 303.948 82.71Z" fill="#EFEFEF"/>
<path d="M285.387 72.229C285.911 67.9601 289.81 64.9135 294.079 65.4377C298.348 65.9618 301.394 69.8612 300.87 74.13C300.346 78.3985 296.447 81.4447 292.178 80.9206C287.909 80.3964 284.863 76.4975 285.387 72.229ZM298.254 73.8088C298.6 70.983 296.583 68.4014 293.758 68.0544C290.932 67.7074 288.35 69.7244 288.003 72.5502C287.656 75.376 289.673 77.9569 292.499 78.3038C295.325 78.6508 297.907 76.6346 298.254 73.8088Z" fill="#E79A45"/>
<path d="M293.758 68.0544L294.079 65.4372C295.369 65.5956 296.608 66.0774 297.662 66.8312C299.99 68.4962 301.219 71.2927 300.87 74.1297L298.254 73.8084C298.484 71.9302 297.669 70.0785 296.128 68.9757C295.431 68.478 294.612 68.1592 293.758 68.0544Z" fill="#FF9014"/>
<path d="M287.602 78.684L289.471 76.8243C290.293 77.6498 291.34 78.1618 292.499 78.3042C295.325 78.6512 297.906 76.6341 298.253 73.8087L300.87 74.13C300.346 78.3985 296.447 81.4447 292.178 80.9206C290.426 80.7055 288.844 79.9324 287.602 78.684Z" fill="#DE984A"/>
<path d="M298.063 126.591H254.724C253.992 126.591 253.392 125.992 253.392 125.259V111.272C253.392 110.539 253.992 109.94 254.724 109.94H298.063C298.796 109.94 299.395 110.539 299.395 111.272V125.259C299.395 125.992 298.796 126.591 298.063 126.591Z" fill="#E79A45"/>
<path d="M267.342 116.52V118.046H255.55V116.52H267.342Z" fill="white"/>
<path d="M281.674 116.52V118.046H269.883V116.52H281.674Z" fill="white"/>
<path d="M267.342 120.42V121.946H255.55V120.42H267.342Z" fill="white"/>
<path d="M281.674 120.42V121.946H269.883V120.42H281.674Z" fill="white"/>
<path d="M296.007 120.42V121.946H284.215V120.42H296.007Z" fill="white"/>
<path d="M296.007 116.52V118.046H284.215V116.52H296.007Z" fill="white"/>
<path d="M267.342 111.795V114.472H255.55V111.795H267.342Z" fill="white"/>
<path d="M281.674 111.795V114.472H269.883V111.795H281.674Z" fill="white"/>
<path d="M296.007 111.795V114.472H284.215V111.795H296.007Z" fill="white"/>
<path d="M298.063 107.291H254.724C253.992 107.291 253.392 106.692 253.392 105.959V87.7725C253.392 87.0397 253.992 86.4407 254.724 86.4407H298.063C298.796 86.4407 299.395 87.0397 299.395 87.7725V105.959C299.395 106.692 298.796 107.291 298.063 107.291Z" fill="#EDEDED"/>
<path d="M253.393 99.932C253.393 99.932 256.323 94.2692 259.124 96.3077C261.926 98.3467 260.414 100.159 263.75 99.932C267.086 99.7054 267.13 96.1057 270.466 96.1057C273.801 96.1057 273.383 99.6976 276.811 99.416C280.197 99.138 279.819 96.8654 282.341 96.8654C284.973 96.8654 286.287 98.5241 287.113 99.5798C288.991 101.976 292.578 101.182 293.645 97.6716C294.713 94.1608 299.395 94.4447 299.395 94.4447V107.291H253.393V99.932Z" fill="#FF9014"/>
<path d="M269.462 69.6921H256.559C256.294 69.6921 256.077 69.4757 256.077 69.2109V68.7292C256.077 68.4644 256.294 68.2476 256.559 68.2476H269.462C269.727 68.2476 269.943 68.4644 269.943 68.7292V69.2109C269.943 69.4757 269.727 69.6921 269.462 69.6921Z" fill="#FF9014"/>
<path d="M255.356 68.9698C255.356 69.5119 254.916 69.9514 254.374 69.9514C253.832 69.9514 253.393 69.5119 253.393 68.9698C253.393 68.4277 253.832 67.9882 254.374 67.9882C254.916 67.9882 255.356 68.4277 255.356 68.9698Z" fill="#FF9014"/>
<path d="M277.52 69.6921H274.238C273.972 69.6921 273.756 69.4757 273.756 69.2109V68.7292C273.756 68.4644 273.972 68.2476 274.238 68.2476H277.52C277.785 68.2476 278.002 68.4644 278.002 68.7292V69.2109C278.002 69.4757 277.785 69.6921 277.52 69.6921Z" fill="#FF9014"/>
<path d="M269.462 74.3919H256.559C256.294 74.3919 256.077 74.1755 256.077 73.9106V73.4294C256.077 73.1646 256.294 72.9481 256.559 72.9481H269.462C269.727 72.9481 269.943 73.1646 269.943 73.4294V73.9106C269.943 74.1755 269.727 74.3919 269.462 74.3919Z" fill="#FF9014"/>
<path d="M255.356 73.6701C255.356 74.2122 254.916 74.6517 254.374 74.6517C253.832 74.6517 253.393 74.2122 253.393 73.6701C253.393 73.128 253.832 72.6885 254.374 72.6885C254.916 72.6885 255.356 73.128 255.356 73.6701Z" fill="#FF9014"/>
<path d="M277.52 74.3919H274.238C273.972 74.3919 273.756 74.1755 273.756 73.9106V73.4294C273.756 73.1646 273.972 72.9481 274.238 72.9481H277.52C277.785 72.9481 278.002 73.1646 278.002 73.4294V73.9106C278.002 74.1755 277.785 74.3919 277.52 74.3919Z" fill="#FF9014"/>
<path d="M269.462 79.4284H256.559C256.294 79.4284 256.077 79.2116 256.077 78.9472V78.4655C256.077 78.2007 256.294 77.9839 256.559 77.9839H269.462C269.727 77.9839 269.943 78.2007 269.943 78.4655V78.9472C269.943 79.2116 269.727 79.4284 269.462 79.4284Z" fill="#FF9014"/>
<path d="M255.356 78.7065C255.356 79.2486 254.916 79.6881 254.374 79.6881C253.832 79.6881 253.393 79.2486 253.393 78.7065C253.393 78.1644 253.832 77.7249 254.374 77.7249C254.916 77.7249 255.356 78.1644 255.356 78.7065Z" fill="#FF9014"/>
<path d="M277.52 79.4284H274.238C273.972 79.4284 273.756 79.2116 273.756 78.9472V78.4655C273.756 78.2007 273.972 77.9839 274.238 77.9839H277.52C277.785 77.9839 278.002 78.2007 278.002 78.4655V78.9472C278.002 79.2116 277.785 79.4284 277.52 79.4284Z" fill="#FF9014"/>
</g>
<path d="M100.287 262.187C100.011 262.187 99.787 261.963 99.787 261.687V214.687C99.787 214.411 100.011 214.187 100.287 214.187C100.563 214.187 100.787 214.411 100.787 214.687V261.687C100.787 261.963 100.563 262.187 100.287 262.187Z" fill="#001924"/>
<path d="M102.745 265.187H40.745C37.161 265.187 34.245 262.271 34.245 258.687V220.687C34.245 217.103 37.161 214.187 40.745 214.187H102.745C106.329 214.187 109.245 217.103 109.245 220.687V258.687C109.245 262.271 106.329 265.187 102.745 265.187ZM40.745 215.187C37.712 215.187 35.245 217.655 35.245 220.687V258.687C35.245 261.719 37.712 264.187 40.745 264.187H102.745C105.778 264.187 108.245 261.719 108.245 258.687V220.687C108.245 217.655 105.778 215.187 102.745 215.187H40.745Z" fill="#001924"/>
<path d="M81.745 214.941C81.469 214.941 81.245 214.717 81.245 214.441V207.687C81.245 206.308 80.123 205.187 78.745 205.187H64.745C63.367 205.187 62.245 206.308 62.245 207.687V214.441C62.245 214.717 62.021 214.941 61.745 214.941C61.469 214.941 61.245 214.717 61.245 214.441V207.687C61.245 205.757 62.815 204.187 64.745 204.187H78.745C80.675 204.187 82.245 205.757 82.245 207.687V214.441C82.245 214.717 82.021 214.941 81.745 214.941Z" fill="#001924"/>
<path d="M58.744 235.686C58.193 235.686 57.746 236.135 57.746 236.686V240.688C57.746 241.24 58.193 241.688 58.744 241.688H68.744C69.298 241.688 69.744 241.24 69.744 240.688V236.686C69.744 236.135 69.298 235.686 68.744 235.686H58.744Z" fill="#DCE2E9"/>
<path d="M68.745 242.187H58.745C57.918 242.187 57.245 241.514 57.245 240.687V236.687C57.245 235.86 57.918 235.187 58.745 235.187H68.745C69.572 235.187 70.245 235.86 70.245 236.687V240.687C70.245 241.514 69.572 242.187 68.745 242.187ZM58.745 236.187C58.469 236.187 58.245 236.412 58.245 236.687V240.687C58.245 240.962 58.469 241.187 58.745 241.187H68.745C69.021 241.187 69.245 240.962 69.245 240.687V236.687C69.245 236.412 69.021 236.187 68.745 236.187H58.745Z" fill="#001924"/>
<path d="M57.745 239.187H34.745C34.469 239.187 34.245 238.963 34.245 238.687C34.245 238.411 34.469 238.187 34.745 238.187H57.745C58.021 238.187 58.245 238.411 58.245 238.687C58.245 238.963 58.021 239.187 57.745 239.187Z" fill="#001924"/>
<path d="M100.287 239.187H69.745C69.469 239.187 69.245 238.963 69.245 238.687C69.245 238.411 69.469 238.187 69.745 238.187H100.287C100.563 238.187 100.787 238.411 100.787 238.687C100.787 238.963 100.563 239.187 100.287 239.187Z" fill="#001924"/>
<path d="M174.267 128.831C168.063 128.831 160.547 125.743 151.856 119.612C151.664 119.476 151.592 119.225 151.684 119.008C154.597 112.147 154.432 101.287 151.192 86.728C151.133 86.458 151.303 86.191 151.572 86.131C151.838 86.075 152.109 86.241 152.169 86.511C155.396 101.019 155.594 111.954 152.759 119.024C162.802 126.044 171.165 128.889 177.616 127.483C181.825 126.566 185.339 123.798 188.064 119.255C186.795 117.626 185.87 114.051 185.242 108.358C185.212 108.084 185.41 107.837 185.685 107.807C185.957 107.776 186.206 107.975 186.236 108.249C186.871 114.003 187.813 117.572 189.039 118.856C189.192 119.018 189.221 119.261 189.108 119.453C186.212 124.43 182.416 127.46 177.829 128.46C176.695 128.707 175.506 128.831 174.267 128.831Z" fill="#001924"/>
<path d="M123.411 259.688C123.411 259.688 133.227 233.385 130.737 223.236C128.372 213.6 127.745 211.768 127.745 211.768L121.449 214.688C121.449 214.688 112.413 175.861 114.403 146.289C114.819 140.101 114.757 131.919 151.909 119.202C151.909 119.202 175.678 139.412 188.678 119.202C188.678 119.202 208.966 124.776 213.032 131.667C217.098 138.556 223.101 150.377 223.101 150.377L238.321 189.641L215.799 199.137L219.607 259.688H123.411Z" fill="#FF9014"/>
<path d="M177.534 109.824H177.456C164.119 108.776 154.799 99.529 149.716 82.34C149.159 80.038 148.727 76.666 148.425 72.292C148.407 72.016 148.614 71.778 148.89 71.759C149.152 71.741 149.404 71.948 149.423 72.223C149.721 76.541 150.144 79.858 150.681 82.081C155.629 98.808 164.653 107.815 177.496 108.825H177.569C189.269 108.825 195.192 103.109 195.638 91.35L196.858 61.205C196.871 60.929 197.112 60.718 197.379 60.725C197.654 60.737 197.869 60.969 197.858 61.245L196.638 91.389C196.173 103.621 189.746 109.824 177.534 109.824Z" fill="#001924"/>
<path d="M149.521 86.756C146.608 86.756 144.388 86.094 142.905 84.781C141.515 83.55 140.757 81.741 140.654 79.406C140.54 76.843 141.142 74.89 142.441 73.601C143.829 72.225 146.018 71.606 148.95 71.758C149.226 71.773 149.438 72.008 149.423 72.284C149.409 72.56 149.175 72.766 148.897 72.757C146.258 72.618 144.324 73.141 143.145 74.311C142.054 75.393 141.552 77.092 141.653 79.362C141.744 81.416 142.388 82.987 143.568 84.033C145.113 85.401 147.653 85.958 151.124 85.692C151.41 85.672 151.64 85.877 151.661 86.152C151.682 86.427 151.476 86.667 151.201 86.689C150.618 86.734 150.057 86.756 149.521 86.756Z" fill="#001924"/>
<path d="M184.73 84.829H184.717L180.053 84.709C179.777 84.702 179.559 84.473 179.566 84.197C179.573 83.92 179.801 83.7 180.079 83.709L184.084 83.813L179.978 67.573C179.911 67.306 180.073 67.034 180.34 66.966C180.608 66.899 180.88 67.06 180.948 67.328L185.215 84.207C185.253 84.359 185.218 84.52 185.121 84.643C185.025 84.761 184.882 84.829 184.73 84.829Z" fill="#001924"/>
<path d="M179.941 91.6202C179.919 91.6269 179.897 91.6327 179.873 91.6359C175.367 92.3492 172.641 90.8186 171.769 87.0862C171.707 86.8177 171.882 86.5529 172.143 86.4857C172.411 86.4225 172.681 86.59 172.743 86.8585C173.484 90.0346 175.765 91.2739 179.716 90.6485C179.989 90.6047 180.245 90.7911 180.289 91.0642C180.327 91.3129 180.176 91.5482 179.941 91.6202Z" fill="#001924"/>
<path d="M165.725 56.8579C165.725 56.8579 167.441 55.1429 171.71 55.1429C173.015 55.1429 175.21 56.3849 175.492 57.5749C175.492 57.5749 176.203 58.4929 172.242 57.5629C171.123 57.2999 169.297 57.3359 168.16 57.4929C165.278 57.8909 165.725 56.8579 165.725 56.8579Z" fill="#001924"/>
<path d="M187.408 61.2839C187.408 61.2839 188.758 58.9809 192.2 60.4979C193.984 61.2839 194.25 62.9509 194.25 62.9509C194.25 62.9509 190.687 61.5339 189.367 61.7349C187.408 62.0339 187.408 61.2839 187.408 61.2839Z" fill="#001924"/>
<path d="M191.278 83.406C190.855 83.406 190.43 83.376 190.005 83.316C187.381 82.948 185.076 81.474 183.516 79.166C181.973 76.883 181.343 74.053 181.745 71.196C182.578 65.27 187.638 61.07 193.027 61.823C198.414 62.58 202.119 68.017 201.287 73.943C200.886 76.799 199.5 79.347 197.387 81.116C195.597 82.614 193.466 83.406 191.278 83.406ZM190.214 81.831C192.415 82.142 194.619 81.477 196.424 79.966C198.252 78.435 199.451 76.222 199.801 73.734C200.519 68.627 197.386 63.95 192.818 63.308C188.259 62.668 183.948 66.298 183.231 71.405C182.881 73.893 183.423 76.351 184.759 78.327C186.078 80.277 188.015 81.522 190.214 81.831Z" fill="#001924"/>
<path d="M171.27 80.593C170.847 80.593 170.423 80.564 169.998 80.504C164.611 79.747 160.905 74.31 161.738 68.384C162.139 65.528 163.523 62.98 165.636 61.211C167.771 59.423 170.392 58.641 173.018 59.011C178.405 59.768 182.112 65.205 181.279 71.131C180.878 73.987 179.492 76.534 177.378 78.304C175.589 79.802 173.458 80.593 171.27 80.593ZM171.751 60.422C169.913 60.422 168.116 61.092 166.6 62.361C164.772 63.892 163.573 66.105 163.223 68.593C162.506 73.7 165.639 78.377 170.207 79.019C172.407 79.33 174.61 78.665 176.416 77.153C178.244 75.623 179.444 73.41 179.794 70.922C180.511 65.815 177.377 61.138 172.809 60.496C172.456 60.446 172.103 60.422 171.751 60.422Z" fill="#001924"/>
<path d="M149.281 72.857C148.965 72.857 148.672 72.656 148.568 72.34C148.439 71.946 148.654 71.523 149.048 71.394L162.349 67.044C162.743 66.915 163.167 67.129 163.296 67.523C163.425 67.917 163.21 68.341 162.816 68.47L149.514 72.821C149.437 72.846 149.358 72.857 149.281 72.857Z" fill="#001924"/>
<path d="M183.312 69.1179C183.148 69.1179 182.983 69.0649 182.845 68.9539C182.243 68.4759 181.641 68.3899 180.951 68.6839C180.568 68.8499 180.13 68.6699 179.967 68.2899C179.804 67.9089 179.98 67.4679 180.361 67.3059C181.562 66.7919 182.743 66.9559 183.779 67.7819C184.103 68.0389 184.157 68.5119 183.899 68.8349C183.751 69.0209 183.533 69.1179 183.312 69.1179Z" fill="#001924"/>
<path d="M291.002 136.367L267.348 136.371C265.867 136.372 264.51 137.196 263.829 138.511L241.892 180.86C240.551 183.448 242.368 186.55 245.281 186.645L272.16 187.52C273.787 187.572 275.28 186.627 275.927 185.134L294.64 141.903C295.773 139.286 293.854 136.366 291.002 136.367ZM280.797 148.168C280.359 150.682 277.79 152.885 275.025 152.817C272.166 152.747 270.688 150.312 271.697 147.679C272.599 145.327 275.173 143.747 277.473 143.927C279.711 144.102 281.191 145.91 280.797 148.168Z" fill="#763F02"/>
<path d="M233.906 191.536L236.578 209.572C236.578 209.572 263.301 186.138 265.49 185.268L266.082 179.916C266.082 179.916 263.599 178.628 263.158 176.805C263.158 176.805 256.222 174.458 257.34 172.937C258.457 171.417 264.244 172.37 264.244 172.37L269.292 174.25L267.366 171.603C267.366 171.603 260.718 167.423 259.905 164.924C259.092 162.426 261.509 160.282 264.438 161.72C267.367 163.158 274.133 166.794 274.133 166.794L280.012 171.296L280.571 164.35C280.571 164.35 268.04 159.735 272.978 155.996L285.05 160.522L287.692 172.832C287.692 172.832 269.807 214.075 262.83 223.29C255.851 232.506 231.481 262.042 218.744 245.963L215.802 199.227L233.906 191.536Z" fill="#F2F5F8"/>
<path d="M227.908 251.169C224.139 251.169 220.925 249.522 218.352 246.273L218.254 246.15L215.282 198.905L234.305 190.823L236.938 208.591C241.564 204.542 261.763 186.908 265.023 184.952L265.549 180.188C264.871 179.782 263.262 178.688 262.751 177.193C261.416 176.726 257.254 175.16 256.773 173.635C256.664 173.288 256.722 172.934 256.937 172.641C258.174 170.959 263.31 171.708 264.326 171.877L267.915 173.206L267.019 171.974C266.023 171.342 260.249 167.592 259.43 165.078C259.002 163.76 259.342 162.415 260.32 161.567C261.421 160.611 263.084 160.498 264.659 161.27C267.562 162.697 274.302 166.317 274.37 166.353L279.588 170.341L280.043 164.685C278.286 164.004 271.807 161.298 271.352 158.238C271.208 157.261 271.653 156.373 272.677 155.597L272.897 155.431L285.481 160.15L288.214 172.883L288.151 173.031C287.42 174.716 270.163 214.434 263.228 223.591C258.358 230.024 241.426 251.022 228.049 251.168C228.002 251.169 227.955 251.169 227.908 251.169ZM219.233 245.773C221.59 248.69 224.508 250.169 227.91 250.169C227.953 250.169 227.995 250.169 228.039 250.168C240.961 250.027 257.629 229.329 262.431 222.988C269.086 214.2 285.989 175.491 287.17 172.78L284.618 160.894L273.071 156.564C272.502 157.055 272.262 157.556 272.341 158.09C272.689 160.428 278.525 163.063 280.744 163.881L281.099 164.012L280.438 172.251L273.83 167.191C273.816 167.191 267.102 163.585 264.217 162.169C262.995 161.568 261.78 161.624 260.975 162.322C260.296 162.911 260.074 163.826 260.381 164.768C261.003 166.676 265.827 170.044 267.633 171.18L267.771 171.309L270.671 175.297L264.07 172.838C261.886 172.489 258.387 172.356 257.744 173.233C257.715 173.271 257.712 173.289 257.727 173.335C257.967 174.097 260.816 175.484 263.318 176.331L263.579 176.419L263.644 176.687C264.026 178.264 266.291 179.46 266.313 179.472L266.617 179.63L265.955 185.622L265.675 185.733C264.128 186.347 247.624 200.55 236.908 209.948L236.217 210.552L233.506 192.249L216.325 199.549L219.233 245.773Z" fill="#4A3115"/>
<path d="M275.83 176.052C275.628 176.052 275.436 175.928 275.361 175.728L273.269 170.162L260.2 163.05C259.958 162.918 259.867 162.614 259.999 162.371C260.132 162.129 260.435 162.04 260.679 162.171L274.075 169.461L276.298 175.376C276.395 175.635 276.265 175.923 276.006 176.02C275.948 176.042 275.889 176.052 275.83 176.052Z" fill="#4A3115"/>
<path d="M162.541 198.588C162.541 198.588 164.624 207.834 166.979 207.242C169.334 206.651 190.787 189.989 190.787 189.989L209.022 172.927L224.1 150.995C224.1 150.995 228.144 141.185 239.391 146.509C250.639 151.832 247.928 156.549 247.928 156.549C247.928 156.549 246.601 158.809 239.307 156.549C239.307 156.549 241.771 168.21 236.503 175.434L229.814 182.015L189.264 225.961C189.264 225.961 172.583 251.257 153.786 247.261C153.786 247.261 138.045 243.429 127.745 211.768L162.541 198.588Z" fill="#F2F5F8"/>
<path d="M166.7 207.657C162.491 204.818 158.311 181.751 158.136 180.77L159.12 180.595C160.297 187.158 164.054 204.668 167.26 206.828L166.7 207.657Z" fill="#001924"/>
<path d="M163.101 220.111C163.065 220.017 159.707 210.623 173.149 202.296C185.953 194.365 207.614 173.589 208.639 172.601C209.367 171.544 223.205 151.41 224.658 148.984C225.274 147.955 227.083 145.47 230.562 144.638C233.997 143.815 238.028 144.839 242.541 147.678C246.606 150.235 250.134 152.811 248.666 156.194C247.59 158.677 246.135 158.382 242.944 157.728C241.954 157.526 240.72 157.275 239.23 157.043C233.446 156.141 231.997 157.188 231.984 157.199L231.333 156.44C231.493 156.298 233.08 155.074 239.384 156.054C240.898 156.29 242.143 156.545 243.144 156.749C246.444 157.423 247.016 157.488 247.748 155.796C248.797 153.379 246.54 151.376 242.008 148.524C237.731 145.834 233.955 144.855 230.794 145.611C227.685 146.355 226.067 148.577 225.515 149.498C224.015 152.003 210.03 172.345 209.435 173.21L209.371 173.286C209.146 173.503 186.817 195.006 173.676 203.145C160.969 211.017 163.906 219.406 164.037 219.758L163.101 220.111Z" fill="#001924"/>
<path d="M157.505 248.093C156.251 248.093 154.982 247.985 153.696 247.753C138.545 245.02 127.723 213.277 127.27 211.927L128.218 211.609C128.327 211.934 139.302 244.141 153.874 246.769C172.506 250.128 188.357 226.302 188.516 226.062C188.922 225.596 224.85 185.214 233.556 177.804C241.996 170.619 238.853 156.803 238.82 156.664L239.793 156.434C239.828 156.581 240.646 160.097 240.385 164.593C240.037 170.587 237.901 175.419 234.204 178.566C225.551 185.931 189.668 226.261 189.307 226.667C189.197 226.843 175.072 248.09 157.505 248.093Z" fill="#001924"/>
<path d="M232.955 163.6C232.791 163.6 232.63 163.519 232.534 163.37C232.385 163.137 232.453 162.828 232.685 162.679C235.759 160.71 239.919 162.07 240.095 162.129C240.356 162.216 240.497 162.499 240.409 162.761C240.323 163.023 240.04 163.166 239.777 163.078C239.737 163.065 235.892 161.813 233.225 163.521C233.142 163.575 233.048 163.6 232.955 163.6Z" fill="#001924"/>
<path d="M233.615 169.211C233.427 169.211 233.246 169.104 233.162 168.922C233.046 168.671 233.154 168.374 233.404 168.258C236.974 166.602 239.513 167.868 239.619 167.923C239.865 168.049 239.962 168.35 239.835 168.595C239.709 168.841 239.408 168.937 239.163 168.813C239.065 168.763 236.922 167.726 233.826 169.164C233.758 169.196 233.685 169.211 233.615 169.211Z" fill="#001924"/>
<path d="M159.042 51.607C159.042 51.607 159.523 77.517 153.408 74.919C151.162 73.964 150.444 72.57 150.444 72.57C150.444 72.57 147.838 71.898 146.121 72.108C146.121 72.108 137.216 49.609 150.308 41.299C154.945 38.356 160.636 40.264 160.636 40.264C160.636 40.264 161.279 31.534 172.151 31.072C172.151 31.072 185.659 24.673 203.842 35.932C222.026 47.191 205.84 56.518 205.84 56.518C205.84 56.518 209.626 65.333 197.038 65.876L197.359 60.817C197.359 60.817 188.673 60.233 185.67 56.988C182.667 53.742 175.79 43.791 170.612 45.197C165.434 46.603 159.042 51.607 159.042 51.607Z" fill="#001924"/>
<path d="M174.061 73.1009C174.061 73.6325 173.248 74.0634 172.245 74.0634C171.241 74.0634 170.427 73.6325 170.427 73.1009C170.427 72.5693 171.241 72.1384 172.245 72.1384C173.248 72.1384 174.061 72.5693 174.061 73.1009Z" fill="#001924"/>
<path d="M194.183 74.541C194.183 75.0726 193.37 75.5035 192.367 75.5035C191.363 75.5035 190.549 75.0726 190.549 74.541C190.549 74.0094 191.363 73.5785 192.367 73.5785C193.37 73.5785 194.183 74.0094 194.183 74.541Z" fill="#001924"/>
<path d="M208.01 173.065L206.828 161.854L207.822 161.749L209.004 172.96L208.01 173.065Z" fill="#001924"/>
</g>
</g>
</g>
<defs>
<clipPath id="clip0_106_183">
<rect width="375" height="260" fill="white" transform="translate(0.5)"/>
</clipPath>
</defs>
</svg>
