<svg xmlns="http://www.w3.org/2000/svg" width="16" height="16" viewBox="0 0 16 16" fill="none">
<path d="M1.33333 4.00001C2.06971 4.00001 2.66667 3.40306 2.66667 2.66668C2.66667 1.9303 2.06971 1.33334 1.33333 1.33334C0.596954 1.33334 0 1.9303 0 2.66668C0 3.40306 0.596954 4.00001 1.33333 4.00001Z" fill="url(#paint0_linear_1406:121)"/>
<path d="M1.33333 9.33335C2.06971 9.33335 2.66667 8.7364 2.66667 8.00002C2.66667 7.26364 2.06971 6.66669 1.33333 6.66669C0.596954 6.66669 0 7.26364 0 8.00002C0 8.7364 0.596954 9.33335 1.33333 9.33335Z" fill="url(#paint1_linear_1406:121)"/>
<path d="M1.33333 14.6667C2.06971 14.6667 2.66667 14.0697 2.66667 13.3333C2.66667 12.597 2.06971 12 1.33333 12C0.596954 12 0 12.597 0 13.3333C0 14.0697 0.596954 14.6667 1.33333 14.6667Z" fill="url(#paint2_linear_1406:121)"/>
<path d="M15.3334 3.33333H5.33335C4.96519 3.33333 4.66669 3.03483 4.66669 2.66667C4.66669 2.2985 4.96519 2 5.33335 2H15.3334C15.7015 2 16 2.2985 16 2.66667C16 3.03483 15.7015 3.33333 15.3334 3.33333Z" fill="url(#paint3_linear_1406:121)"/>
<path d="M15.3334 8.66668H5.33335C4.96519 8.66668 4.66669 8.36818 4.66669 8.00001C4.66669 7.63184 4.96519 7.33334 5.33335 7.33334H15.3334C15.7015 7.33334 16 7.63184 16 8.00001C16 8.36818 15.7015 8.66668 15.3334 8.66668Z" fill="url(#paint4_linear_1406:121)"/>
<path d="M15.3334 14H5.33335C4.96519 14 4.66669 13.7018 4.66669 13.3334C4.66669 12.9649 4.96519 12.6667 5.33335 12.6667H15.3334C15.7015 12.6667 16 12.9649 16 13.3334C16 13.7018 15.7015 14 15.3334 14Z" fill="url(#paint5_linear_1406:121)"/>
<defs>
<linearGradient id="paint0_linear_1406:121" x1="0.270531" y1="2.65234" x2="3.58135" y2="2.93198" gradientUnits="userSpaceOnUse">
<stop stop-color="#FF9014"/>
<stop offset="1" stop-color="#FF5A04"/>
</linearGradient>
<linearGradient id="paint1_linear_1406:121" x1="0.270531" y1="7.98568" x2="3.58135" y2="8.26533" gradientUnits="userSpaceOnUse">
<stop stop-color="#FF9014"/>
<stop offset="1" stop-color="#FF5A04"/>
</linearGradient>
<linearGradient id="paint2_linear_1406:121" x1="0.270531" y1="13.319" x2="3.58135" y2="13.5986" gradientUnits="userSpaceOnUse">
<stop stop-color="#FF9014"/>
<stop offset="1" stop-color="#FF5A04"/>
</linearGradient>
<linearGradient id="paint3_linear_1406:121" x1="5.81645" y1="2.6595" x2="15.1678" y2="9.37321" gradientUnits="userSpaceOnUse">
<stop stop-color="#FF9014"/>
<stop offset="1" stop-color="#FF5A04"/>
</linearGradient>
<linearGradient id="paint4_linear_1406:121" x1="5.81645" y1="7.99284" x2="15.1678" y2="14.7065" gradientUnits="userSpaceOnUse">
<stop stop-color="#FF9014"/>
<stop offset="1" stop-color="#FF5A04"/>
</linearGradient>
<linearGradient id="paint5_linear_1406:121" x1="5.81645" y1="13.3262" x2="15.1678" y2="20.0399" gradientUnits="userSpaceOnUse">
<stop stop-color="#FF9014"/>
<stop offset="1" stop-color="#FF5A04"/>
</linearGradient>
</defs>
</svg>