<svg width="35" height="35" viewBox="0 0 35 35" fill="none" xmlns="http://www.w3.org/2000/svg">
<path d="M16.0417 7.29167V17.5C16.0417 17.8868 16.1953 18.2577 16.4688 18.5312C16.7423 18.8047 17.1132 18.9583 17.5 18.9583H27.7083V16.0417H18.9583V7.29167H16.0417Z" fill="url(#paint0_linear)"/>
<path d="M17.5 3.87946e-06C12.8603 0.00502212 8.41197 1.85038 5.13117 5.13118C1.85037 8.41198 0.00501824 12.8603 0 17.5H2.91667C2.91404 14.2086 4.02316 11.0127 6.06422 8.43055C8.10529 5.84838 10.9586 4.03125 14.1617 3.27376C17.3648 2.51626 20.7299 2.8628 23.7113 4.25719C26.6928 5.65158 29.116 8.01209 30.5879 10.956C32.0599 13.9 32.4944 17.2548 31.821 20.4766C31.1477 23.6984 29.4059 26.5984 26.878 28.7064C24.3502 30.8143 21.1845 32.0068 17.8941 32.0903C14.6037 32.1738 11.3816 31.1436 8.75 29.1667L11.375 25.6667L0.875 25.0833L4.375 35L7 31.4913C9.21783 33.1575 11.8 34.2727 14.5335 34.7447C17.2671 35.2168 20.0737 35.0323 22.7219 34.2064C25.3701 33.3805 27.7841 31.9368 29.7647 29.9945C31.7452 28.0523 33.2357 25.667 34.1131 23.0354C34.9906 20.4038 35.2299 17.6013 34.8112 14.8591C34.3926 12.1168 33.3281 9.51336 31.7054 7.26344C30.0828 5.01351 27.9485 3.18156 25.4786 1.91868C23.0087 0.655794 20.274 -0.00184304 17.5 3.87946e-06Z" fill="url(#paint1_linear)"/>
<defs>
<linearGradient id="paint0_linear" x1="17.2252" y1="13.0623" x2="31.7101" y2="14.2857" gradientUnits="userSpaceOnUse">
<stop stop-color="#FF9014"/>
<stop offset="1" stop-color="#FF5A04"/>
</linearGradient>
<linearGradient id="paint1_linear" x1="3.55191" y1="17.3118" x2="47.0207" y2="20.9846" gradientUnits="userSpaceOnUse">
<stop stop-color="#FF9014"/>
<stop offset="1" stop-color="#FF5A04"/>
</linearGradient>
</defs>
</svg>
