<svg width="33" height="33" viewBox="0 0 33 33" fill="none" xmlns="http://www.w3.org/2000/svg">
<path d="M13.5833 26.7083C10.9874 26.7083 8.44985 25.9386 6.29146 24.4964C4.13306 23.0542 2.4508 21.0043 1.4574 18.6061C0.464 16.2078 0.204081 13.5688 0.710512 11.0228C1.21694 8.47677 2.46698 6.13812 4.30254 4.30256C6.13811 2.46699 8.47676 1.21696 11.0228 0.710527C13.5688 0.204096 16.2078 0.464015 18.606 1.45742C21.0043 2.45082 23.0542 4.13308 24.4964 6.29147C25.9385 8.44987 26.7083 10.9875 26.7083 13.5833C26.7041 17.063 25.3199 20.3989 22.8594 22.8594C20.3989 25.3199 17.063 26.7041 13.5833 26.7083ZM13.5833 3.375C11.5643 3.375 9.59062 3.97371 7.91187 5.09542C6.23312 6.21712 4.92469 7.81144 4.15205 9.67677C3.3794 11.5421 3.17725 13.5947 3.57114 15.5749C3.96503 17.5551 4.93728 19.3741 6.36494 20.8017C7.7926 22.2294 9.61155 23.2016 11.5918 23.5955C13.572 23.9894 15.6245 23.7872 17.4899 23.0146C19.3552 22.242 20.9495 20.9335 22.0712 19.2548C23.1929 17.576 23.7917 15.6024 23.7917 13.5833C23.7886 10.8769 22.7121 8.28213 20.7983 6.36836C18.8845 4.4546 16.2898 3.37809 13.5833 3.375Z" fill="url(#paint0_linear)"/>
<path d="M9.20829 13.5833H6.29163C6.29394 11.6502 7.06291 9.79686 8.42986 8.42991C9.79681 7.06296 11.6501 6.29399 13.5833 6.29167V9.20834C12.423 9.20834 11.3102 9.66927 10.4897 10.4897C9.66923 11.3102 9.20829 12.423 9.20829 13.5833Z" fill="url(#paint1_linear)"/>
<path d="M32.1143 30.0523L25.9077 23.8456C25.2844 24.5943 24.5942 25.2845 23.8456 25.9077L30.0522 32.1144C30.3273 32.38 30.6957 32.527 31.078 32.5237C31.4604 32.5204 31.8262 32.367 32.0966 32.0966C32.367 31.8262 32.5203 31.4605 32.5237 31.0781C32.527 30.6957 32.38 30.3273 32.1143 30.0523Z" fill="url(#paint2_linear)"/>
<defs>
<linearGradient id="paint0_linear" x1="3.12136" y1="13.4422" x2="35.7123" y2="16.1949" gradientUnits="userSpaceOnUse">
<stop stop-color="#FF9014"/>
<stop offset="1" stop-color="#FF5A04"/>
</linearGradient>
<linearGradient id="paint1_linear" x1="7.03136" y1="9.8983" x2="16.0844" y2="10.663" gradientUnits="userSpaceOnUse">
<stop stop-color="#FF9014"/>
<stop offset="1" stop-color="#FF5A04"/>
</linearGradient>
<linearGradient id="paint2_linear" x1="24.726" y1="28.138" x2="35.5004" y2="29.0481" gradientUnits="userSpaceOnUse">
<stop stop-color="#FF9014"/>
<stop offset="1" stop-color="#FF5A04"/>
</linearGradient>
</defs>
</svg>
