<svg width="50" height="50" viewBox="0 0 50 50" fill="none" xmlns="http://www.w3.org/2000/svg">
<g clip-path="url(#clip0)">
<path d="M42.7947 18.046C39.632 14.8833 34.7761 14.4368 31.1236 16.6868L27.8423 13.4056L26.8111 22.6863L36.0919 21.6551L33.2829 18.8462C35.7197 17.6902 38.7184 18.0944 40.7323 20.1083C43.2907 22.6667 43.2907 26.8307 40.7323 29.3891C38.1739 31.9475 34.0099 31.9475 31.4515 29.3891L20.1084 18.046C16.4125 14.3501 10.3986 14.3501 6.7028 18.046C3.00698 21.7418 3.00698 27.7557 6.70279 31.4515C9.86548 34.6142 14.7214 35.0607 18.3739 32.8106L21.6552 36.0919L22.6864 26.8111L13.4056 27.8423L16.2146 30.6513C13.7778 31.8073 10.7791 31.4031 8.76519 29.3891C6.20679 26.8307 6.20679 22.6667 8.76519 20.1083C11.3236 17.5499 15.4876 17.5499 18.046 20.1083L29.3891 31.4515C33.0849 35.1473 39.0989 35.1473 42.7947 31.4515C46.4905 27.7557 46.4905 21.7418 42.7947 18.046Z" fill="url(#paint0_linear)"/>
</g>
<defs>
<linearGradient id="paint0_linear" x1="15.0182" y1="14.752" x2="43.1499" y2="48.0744" gradientUnits="userSpaceOnUse">
<stop stop-color="#FF9014"/>
<stop offset="1" stop-color="#FF5A04"/>
</linearGradient>
<clipPath id="clip0">
<rect width="35" height="35" fill="white" transform="translate(24.7487) rotate(45)"/>
</clipPath>
</defs>
</svg>
