<svg width="22" height="24" viewBox="0 0 22 24" fill="none" xmlns="http://www.w3.org/2000/svg">
<path d="M11 13C14.309 13 17 10.309 17 7V6C17 2.691 14.309 0 11 0C7.691 0 5 2.691 5 6V7C5 10.309 7.691 13 11 13Z" fill="url(#paint0_linear)"/>
<path d="M18.322 15.981C13.618 14.678 8.383 14.678 3.678 15.981C1.513 16.581 0 18.564 0 20.805V24H22V20.805C22 18.564 20.487 16.581 18.322 15.981Z" fill="url(#paint1_linear)"/>
<defs>
<linearGradient id="paint0_linear" x1="6.21739" y1="6.43011" x2="21.1317" y2="7.59293" gradientUnits="userSpaceOnUse">
<stop stop-color="#FF9014"/>
<stop offset="1" stop-color="#FF5A04"/>
</linearGradient>
<linearGradient id="paint1_linear" x1="2.23188" y1="19.4535" x2="28.6154" y2="24.9031" gradientUnits="userSpaceOnUse">
<stop stop-color="#FF9014"/>
<stop offset="1" stop-color="#FF5A04"/>
</linearGradient>
</defs>
</svg>
